<?xml version="1.0" encoding="UTF-8"?>
<svg version="1.1" xmlns="http://www.w3.org/2000/svg" width="487" height="1233">
<path d="M0 0 C160.71 0 321.42 0 487 0 C487 406.89 487 813.78 487 1233 C326.29 1233 165.58 1233 0 1233 C0 826.11 0 419.22 0 0 Z " fill="#000000" transform="translate(0,0)"/>
<path d="M0 0 C5.94 0 11.88 0 18 0 C18 0.66 18 1.32 18 2 C18.57105469 2.06316406 19.14210937 2.12632813 19.73046875 2.19140625 C31.11247175 3.91046871 42.02716807 9.71881047 49 19 C59.33927193 35.21707721 58.40698882 52.49557483 58 71 C58.969375 71.28875 59.93875 71.5775 60.9375 71.875 C64 73 64 73 65 75 C65.54080235 82.83534574 64.88547969 90.3860247 63 98 C62.82855469 98.69351563 62.65710938 99.38703125 62.48046875 100.1015625 C61.875 101.9375 61.875 101.9375 60 105 C58.09765625 105.85546875 58.09765625 105.85546875 55.9375 106.625 C53.83651522 107.46861079 53.83651522 107.46861079 52 109 C48.59591369 118.73420322 49.5942985 130.78779598 49.57446289 140.96777344 C49.56243501 143.89079506 49.51298513 146.81178824 49.46289062 149.734375 C49.45343753 151.61196903 49.44619718 153.48957579 49.44140625 155.3671875 C49.41210777 156.66268021 49.41210777 156.66268021 49.38221741 157.98434448 C49.4286377 164.2351238 50.92116196 167.25548881 55 172 C65.69522519 181.6808327 82.14576968 187.10298473 95.10791016 193.12011719 C96.80758016 193.91051857 98.50363883 194.70867471 100.19921875 195.5078125 C105.71215054 198.07590067 111.19180281 200.1908894 117 202 C117 202.66 117 203.32 117 204 C117.556875 204.10957031 118.11375 204.21914062 118.6875 204.33203125 C123.29352959 205.28902726 127.55621973 206.46077868 131.8828125 208.31640625 C134.1494399 209.12644551 134.1494399 209.12644551 137.24609375 209.359375 C141.65584122 210.11192296 145.00008277 211.63889288 148.9375 213.6875 C149.64334229 214.05053223 150.34918457 214.41356445 151.07641602 214.78759766 C165.98383983 222.60421146 174.92707246 233.43917459 181 249 C184.05375469 258.89372528 185.22554077 268.87637994 184.984375 279.19140625 C184.9687854 279.87834564 184.9531958 280.56528503 184.93713379 281.27304077 C184.86444433 284.07268758 184.7804685 286.87078477 184.65722656 289.66870117 C184.20347447 300.64669762 186.16253134 308.06610583 191 318 C192.1931125 321.15091477 193.20629281 324.34015872 194.1875 327.5625 C194.42146484 328.29662109 194.65542969 329.03074219 194.89648438 329.78710938 C198.28217742 340.67169279 200.41578466 351.72572276 202 363 C202.16951172 364.16265381 202.33902344 365.32530762 202.51367188 366.52319336 C203.31315363 372.03245233 204.07801918 377.54402981 204.78125 383.06640625 C206.38382163 395.9508989 206.38382163 395.9508989 211 408 C222.84043076 430.76854452 228.18360556 453.04800335 228.1328125 478.82421875 C228.13424759 480.48007744 228.13424759 480.48007744 228.13571167 482.16938782 C228.13638842 484.49809832 228.13456958 486.82681076 228.13037109 489.15551758 C228.12508285 492.63302109 228.1302986 496.11039143 228.13671875 499.58789062 C228.1400753 511.38229866 227.92318742 523.13095356 227.36972046 534.91209412 C226.86915557 546.00924223 226.77821877 557.10319661 226.75976562 568.21044922 C226.74996793 571.76162359 226.71873941 575.31223898 226.6875 578.86328125 C226.61051613 595.50983423 227.78729368 611.29029563 232.1875 627.375 C236.31330184 642.83273032 234.10063884 660.27267656 228 675 C223.07169118 682.48372821 214.94831779 687.9065212 208.00390625 693.3984375 C206.11819816 694.84483376 206.11819816 694.84483376 205 696 C203.00041636 696.04080783 200.99954746 696.04254356 199 696 C197.67987802 692.03963405 197.05503956 688.07896593 198 684 C201.15261079 678.55529253 205.1348504 673.87590784 209.5 669.375 C212.23557162 666.19844825 212.7585677 663.82699435 212.46484375 659.671875 C210.70249343 648.44415053 210.70249343 648.44415053 205 639 C203.68 639 202.36 639 201 639 C200.85304688 640.45019531 200.85304688 640.45019531 200.703125 641.9296875 C198.53826364 660.77891138 198.53826364 660.77891138 193.0390625 665.78515625 C191 667 191 667 188.25 666.6875 C187.5075 666.460625 186.765 666.23375 186 666 C185.97291433 664.39592672 185.95356517 662.7917215 185.9375 661.1875 C185.92589844 660.29417969 185.91429687 659.40085937 185.90234375 658.48046875 C186 656 186 656 187 653 C186.97788839 650.17524209 186.89810519 647.37552803 186.78125 644.5546875 C186.73440606 642.81907796 186.69022835 641.08339482 186.6484375 639.34765625 C186.58141385 636.63222711 186.50213343 633.9208856 186.37597656 631.20751953 C185.81724898 618.7192655 187.25415252 610.30765905 193.96948242 599.65625 C199.59517765 590.44510255 195.57887465 577.92166983 193.26171875 568.05078125 C188.65539719 549.27846839 182.80862757 530.79091685 175.875 512.75 C173.80625829 507.34968945 171.96098945 501.91865969 170.3125 496.375 C170.02705322 495.42705566 170.02705322 495.42705566 169.73583984 494.45996094 C166.0240527 481.62565597 164.20560242 468.7118811 162.92138672 455.46166992 C161.62758317 442.32941101 158.69746693 430.35080872 152.375 418.625 C138.8000936 392.3616577 129.06874379 365.53665896 126 336 C124.68 336.33 123.36 336.66 122 337 C122.04640625 337.69480469 122.0928125 338.38960938 122.140625 339.10546875 C122.52981023 350.07215253 120.27227992 360.32491347 118 371 C117.69627927 372.47909785 117.39287311 373.95826035 117.08984375 375.4375 C114.70776829 386.79726639 111.65192454 397.97282515 108.5859375 409.1640625 C108.31209229 410.17992432 108.03824707 411.19578613 107.75610352 412.24243164 C107.31044657 413.86777722 106.84885956 415.4891444 106.35131836 417.09936523 C104.53830975 423.26841848 104.73958404 429.42682927 104.8125 435.8125 C104.8225708 437.04371582 104.8326416 438.27493164 104.84301758 439.54345703 C104.86967015 442.10700902 104.90285139 444.67050099 104.94238281 447.23388672 C104.97921874 449.6416453 105.00800391 452.04954921 105.02636719 454.45751953 C105.16195117 470.38863729 106.96425083 485.56933559 109.81640625 501.23828125 C110.75786255 506.43018826 111.42730428 511.55962442 111.875 516.8125 C112.72667927 524.89939747 114.97572914 532.43128509 117.25463867 540.2199707 C127.57395714 575.85951674 133.10056105 615.01018084 133.203125 652.09765625 C133.20595238 652.80316557 133.20877975 653.50867489 133.21169281 654.23556328 C133.22658249 657.98199695 133.23587183 661.72839326 133.24023438 665.47485352 C133.24458344 668.50655385 133.25834998 671.53796389 133.28125 674.56958008 C133.47570623 700.90931291 131.40236191 726.29602081 126.52050781 752.23144531 C125.98947291 755.05599304 125.47429367 757.88312807 124.9609375 760.7109375 C122.22505598 775.5917328 122.22505598 775.5917328 120.265625 781.734375 C118.14521127 789.04951505 118.64209473 796.70622021 118.75 804.25 C118.76332288 805.88484076 118.77584383 807.51968823 118.78759766 809.15454102 C118.83073494 814.10358932 118.91017784 819.05160404 119 824 C119.01309204 824.75746521 119.02618408 825.51493042 119.03967285 826.29534912 C119.12615304 831.17692837 119.24127062 836.05697993 119.375 840.9375 C119.40561523 842.15405273 119.43623047 843.37060547 119.46777344 844.62402344 C119.8520129 856.09722316 121.2780342 867.19252353 124.375 878.25 C137.23996692 926.82435721 131.39584232 974.69538986 123.2578125 1023.40234375 C121.21172453 1035.65805846 119.36654457 1047.94477749 117.55664062 1060.23730469 C117.20122615 1062.63978182 116.84103281 1065.0415601 116.47460938 1067.44238281 C114.67376268 1079.27703069 113.69206862 1090.03837299 115 1102 C115.08901444 1103.74699337 115.16907897 1105.49445625 115.2421875 1107.2421875 C115.84207214 1119.12463652 117.89605459 1127.77026073 123.89453125 1138.00976562 C126.24238707 1142.23673574 128.10932817 1146.72307105 130.03369141 1151.15551758 C132.02354313 1155.53116634 134.40110093 1158.87608368 137.61767578 1162.44360352 C141.36450703 1166.66226287 144.23270348 1171.62225521 144.6875 1177.3125 C144 1181 144 1181 141.625 1183.375 C132.68280329 1187.38357094 123.27734297 1187.34468964 113.64086914 1187.31567383 C111.43781591 1187.31250046 109.23609266 1187.33609765 107.03320312 1187.36132812 C89.96621553 1187.43738679 89.96621553 1187.43738679 84.125 1182.375 C83.05413544 1180.11428593 82.35382438 1177.95098425 81.625 1175.5625 C79.90854914 1170.10025272 76.77344139 1167.4192778 72.359375 1163.88671875 C69.1863541 1160.00449615 69.38080303 1157.40854683 69.625 1152.5625 C69.63917969 1151.82451172 69.65335937 1151.08652344 69.66796875 1150.32617188 C69.75026071 1147.24022342 69.93954624 1144.32715635 70.50170898 1141.28491211 C71.11002219 1137.27469446 71.19199408 1133.36238061 71.24609375 1129.3125 C71.27901813 1127.6275987 71.31223 1125.94270299 71.34570312 1124.2578125 C71.39312646 1121.62471152 71.43762446 1118.99163549 71.47680664 1116.35839844 C71.51665835 1113.80120702 71.56814818 1111.24444925 71.62109375 1108.6875 C71.6295079 1107.90608643 71.63792206 1107.12467285 71.64659119 1106.31958008 C71.7482853 1101.79174571 72.52109372 1098.31290344 74 1094 C74.4518716 1088.65918151 74.38711032 1083.29557425 74.375 1077.9375 C74.37545319 1077.1638913 74.37590637 1076.39028259 74.37637329 1075.5932312 C74.35177187 1061.21138936 72.89047191 1047.36018476 70.51708984 1033.16357422 C70.03406381 1030.20840361 69.60662742 1027.25261483 69.20703125 1024.28515625 C68.06274915 1015.837961 66.57375455 1007.72642591 64.2421875 999.51171875 C62.45994473 993.17401506 60.93293671 986.77067657 59.375 980.375 C58.92302246 978.55174194 58.92302246 978.55174194 58.46191406 976.69165039 C53.63568948 956.82584467 52.8507349 937.52491165 52.9375 917.1875 C52.94252612 915.12695422 52.94708705 913.06640724 52.95117188 911.00585938 C52.9620869 906.00387639 52.97928996 901.00195163 53 896 C53.33 896 53.66 896 54 896 C58.58067953 879.96762166 55.17581779 865.63522545 51 850 C46.61435461 833.314162 43.09050606 816.9864434 41.3671875 799.80859375 C39.23632581 778.70150259 35.73370408 757.91835073 29.9296875 737.484375 C28.57175477 732.39498005 27.54483388 727.24671314 26.49731445 722.0859375 C25.51085421 717.27328003 24.36237019 712.5525889 23.0625 707.8125 C17.74038407 687.54956913 15.60784188 666.15172933 14.18945312 645.31201172 C13.93278841 642.17977612 13.49376344 639.10304781 13 636 C11.35 636 9.7 636 8 636 C8.01957764 636.66902344 8.03915527 637.33804688 8.05932617 638.02734375 C8.20331294 647.10841427 7.34502152 655.99584691 6.3125 665 C6.22319214 665.78889618 6.13388428 666.57779236 6.04187012 667.39059448 C3.58394288 688.91369243 -0.45887532 709.93553671 -5.38986206 731.01330566 C-10.79688084 754.20917006 -15.49371304 777.6201814 -17.5 801.375 C-18.40519538 812.09083054 -20.0489017 822.44028802 -22.3125 832.9375 C-22.46291748 833.63677612 -22.61333496 834.33605225 -22.76831055 835.05651855 C-24.25432781 841.8914824 -25.85311362 848.67214111 -27.82421875 855.38671875 C-32.40945863 871.01194561 -32.72887785 884.93988281 -30 901 C-28.9906674 911.7288317 -28.85115613 922.5255506 -28.76882935 933.29550171 C-28.75654279 934.69320152 -28.73925716 936.09086893 -28.71627808 937.48843384 C-28.43850174 955.59096719 -32.29951736 972.84883024 -35.97338867 990.49975586 C-42.00732025 1019.51059092 -47.28151762 1047.90571384 -47.375 1077.625 C-47.3774472 1078.30094208 -47.37989441 1078.97688416 -47.38241577 1079.67330933 C-47.4229017 1087.86332801 -47.4229017 1087.86332801 -46.00268555 1095.88110352 C-44.87458989 1100.11376897 -44.6711558 1104.12395526 -44.62109375 1108.48828125 C-44.60409927 1109.27212692 -44.5871048 1110.0559726 -44.56959534 1110.86357117 C-44.51698251 1113.34646741 -44.47646173 1115.8293553 -44.4375 1118.3125 C-44.37885666 1121.57954286 -44.31479673 1124.84643476 -44.24609375 1128.11328125 C-44.22994522 1128.89521347 -44.21379669 1129.67714569 -44.19715881 1130.48277283 C-44.05797084 1136.35489509 -43.62051057 1142.15900646 -43 1148 C-42.60983043 1153.35363825 -42.33180098 1157.56080211 -44.625 1162.5 C-47.23894361 1165.25151959 -49.4779459 1166.62180492 -53 1168 C-53.66 1168 -54.32 1168 -55 1168 C-55.12955078 1169.33804687 -55.12955078 1169.33804687 -55.26171875 1170.703125 C-55.40222656 1171.87359375 -55.54273438 1173.0440625 -55.6875 1174.25 C-55.81511719 1175.41015625 -55.94273437 1176.5703125 -56.07421875 1177.765625 C-57.23280633 1181.81334871 -58.41242615 1182.86021587 -62 1185 C-69.09801828 1187.41294708 -75.94386634 1187.33711516 -83.34033203 1187.31567383 C-85.59848389 1187.31253684 -87.85529299 1187.33593254 -90.11328125 1187.36132812 C-98.81354967 1187.40133842 -107.8310264 1187.35017929 -116 1184 C-118.35638959 1181.51650357 -118.94841936 1180.28655913 -119.5625 1176.875 C-118.55679773 1169.94682878 -114.34304808 1164.63818316 -110.0625 1159.25 C-106.2156601 1154.25410403 -103.66957241 1148.6037283 -100.96044922 1142.94580078 C-99.96813786 1140.9354496 -98.91744706 1138.96620829 -97.84765625 1136.99609375 C-93.38162178 1128.68127347 -90.68959307 1121.54911088 -90 1112 C-89.89300781 1110.91589844 -89.78601563 1109.83179688 -89.67578125 1108.71484375 C-89.36005204 1105.14341329 -89.1653551 1101.58144124 -89 1098 C-88.92265625 1096.78183594 -88.8453125 1095.56367187 -88.765625 1094.30859375 C-87.94041674 1075.52638876 -92.25796472 1056.53150486 -95.3046875 1038.0703125 C-95.72424474 1035.52608888 -96.14351854 1032.9818185 -96.5625 1030.4375 C-96.87296265 1028.55804687 -96.87296265 1028.55804687 -97.18969727 1026.640625 C-98.96844468 1015.66080662 -100.33085338 1004.65077029 -101.61474609 993.60400391 C-102.58661937 985.25969619 -103.65569964 976.94690821 -105.04931641 968.66137695 C-107.02737947 956.47095503 -107.26977461 944.07732549 -107.3125 931.75 C-107.31511841 931.01587891 -107.31773682 930.28175781 -107.32043457 929.52539062 C-107.32732702 911.29782316 -104.45719381 893.90185642 -100.36694336 876.17285156 C-96.59382667 859.67608326 -96.38359213 842.96711331 -96.04614258 826.11535645 C-95.99924988 823.96561163 -95.94131774 821.8163955 -95.88085938 819.66699219 C-95.45093878 803.85979423 -95.37402698 788.9699869 -99.5625 773.5859375 C-101.41702242 766.7499058 -102.5265146 759.79378675 -103.6875 752.8125 C-103.88947998 751.6061792 -104.09145996 750.3998584 -104.29956055 749.15698242 C-104.68484937 746.85213823 -105.06868726 744.54705092 -105.45092773 742.24169922 C-105.9668063 739.19597417 -106.5152394 736.15843382 -107.078125 733.12109375 C-107.86420619 728.83810439 -108.52012236 724.57078996 -109.0625 720.25 C-109.21847656 719.03828125 -109.37445313 717.8265625 -109.53515625 716.578125 C-111.120152 701.75595147 -111.18623754 686.98155598 -111.18530273 672.08911133 C-111.18747357 668.23442268 -111.205638 664.38002831 -111.22460938 660.52539062 C-111.27344805 639.41973051 -110.37365751 618.42382748 -107 597.5625 C-106.835 596.48419922 -106.67 595.40589844 -106.5 594.29492188 C-105.5785977 588.34539846 -104.55368797 582.41935828 -103.45996094 576.49926758 C-103.05611873 574.30492964 -102.66709712 572.10905761 -102.2890625 569.91015625 C-97.38511856 541.49612813 -97.38511856 541.49612813 -94 530 C-91.63845714 521.55401142 -90.59918556 512.93863022 -89.4362793 504.2590332 C-88.61467419 498.15807394 -87.6989734 492.18433397 -86.3125 486.1875 C-82.54228934 468.34047019 -83.85086186 449.13749198 -84 431 C-84.33 431 -84.66 431 -85 431 C-84.97679687 430.14277344 -84.95359375 429.28554688 -84.9296875 428.40234375 C-84.91164063 427.25894531 -84.89359375 426.11554688 -84.875 424.9375 C-84.85179687 423.81214844 -84.82859375 422.68679688 -84.8046875 421.52734375 C-85.01365862 417.75332526 -85.87506898 414.56845514 -87 411 C-94.3026868 385.68387928 -99.42346424 361.27591542 -102 335 C-102.66 335 -103.32 335 -104 335 C-104 335.66 -104 336.32 -104 337 C-104.66 337 -105.32 337 -106 337 C-106.00257812 337.72058594 -106.00515625 338.44117188 -106.0078125 339.18359375 C-106.30692831 347.48904276 -107.77032338 355.24259523 -109.6875 363.3125 C-109.91904785 364.30628662 -110.1505957 365.30007324 -110.38916016 366.32397461 C-114.50442991 383.05519378 -121.24213761 398.25384902 -128.84008789 413.64770508 C-135.53975675 427.27107858 -139.05444469 439.50636094 -140.76254272 454.66445923 C-141.16803599 458.22582724 -141.61102959 461.78257103 -142.05078125 465.33984375 C-142.17759026 466.36908211 -142.17759026 466.36908211 -142.30696106 467.41911316 C-144.75565544 487.25097347 -150.5078476 506.0696117 -158.5625 524.375 C-166.68316976 543.02527397 -179.8034857 577.45191084 -173.01171875 597.98828125 C-171.30094497 601.90240455 -169.41695382 605.41595952 -166.93164062 608.8972168 C-163.99824479 614.06359873 -164.50302172 619.49128458 -164.609375 625.27734375 C-164.61503479 626.4438295 -164.62069458 627.61031525 -164.62652588 628.81214905 C-164.64883416 632.52102487 -164.69902293 636.22891841 -164.75 639.9375 C-164.77007205 642.45897038 -164.78832158 644.98045597 -164.8046875 647.50195312 C-164.8486809 653.6683013 -164.91553863 659.83408045 -165 666 C-168.7421875 667.0625 -168.7421875 667.0625 -171.0625 666.5 C-173.95677343 664.25927218 -174.81965979 661.34323389 -176 658 C-176.26941406 657.30390625 -176.53882813 656.6078125 -176.81640625 655.890625 C-178.86863482 650.29904572 -179.64090271 644.9312967 -180 639 C-182.43530507 639.34939366 -182.43530507 639.34939366 -185 641 C-189.35934466 647.75328986 -191.58014742 656.9966027 -191 665 C-189.06102121 667.67398476 -189.06102121 667.67398476 -187 670 C-187 670.66 -187 671.32 -187 672 C-186.01 672.33 -185.02 672.66 -184 673 C-182.4296875 674.7421875 -182.4296875 674.7421875 -180.875 676.875 C-180.35679687 677.57367187 -179.83859375 678.27234375 -179.3046875 678.9921875 C-177.1131822 682.36474356 -176.8634467 685.14015483 -176.875 689.0625 C-176.87113281 690.37927734 -176.87113281 690.37927734 -176.8671875 691.72265625 C-177 694 -177 694 -178 696 C-185.14268691 695.25683026 -188.73550682 691.56874518 -194 687 C-194.88816406 686.26910156 -195.77632812 685.53820312 -196.69140625 684.78515625 C-206.71986931 676.28113914 -210.17773103 667.87278614 -211.625 655.0625 C-211.77425648 653.04331332 -211.89587222 651.02201626 -212 649 C-212.03399902 648.34854004 -212.06799805 647.69708008 -212.10302734 647.02587891 C-212.55713594 636.964031 -211.74501254 628.07354557 -209.0703125 618.35546875 C-206.36888643 608.01503583 -205.7165628 597.75824553 -205.82055664 587.11352539 C-205.82605041 585.77786602 -205.8305938 584.44220246 -205.83427429 583.10653687 C-205.84389618 580.25620003 -205.85963961 577.40599013 -205.88023567 574.55571175 C-205.91246192 570.02458186 -205.92764442 565.49348615 -205.94029236 560.96226501 C-205.97415205 549.70409883 -206.02659238 538.44602922 -206.0894165 527.18798828 C-206.13822594 518.43760533 -206.18018014 509.68731383 -206.20092481 500.93681329 C-206.21043375 497.18140971 -206.22577326 493.42624417 -206.25605965 489.67094612 C-206.47346472 462.21764926 -205.8119563 435.55709309 -191.24755859 411.44604492 C-184.56028185 399.91487447 -183.26892457 386.32203411 -181.9375 373.3125 C-181.02822816 364.5768884 -180.03240358 356.07459637 -177.66137695 347.58251953 C-176.97737955 344.91167252 -176.5847618 342.29721045 -176.25 339.5625 C-175.31957927 333.60149939 -173.52718571 328.02055098 -171.625 322.3125 C-171.33270508 321.43343994 -171.04041016 320.55437988 -170.73925781 319.64868164 C-169.32516575 315.51024555 -167.83495701 311.67907498 -165.77734375 307.8203125 C-163.13211356 302.00860874 -163.66310503 295.91295421 -163.8710022 289.67282104 C-163.98366092 286.097574 -164.01553577 282.52211656 -164.0390625 278.9453125 C-164.04365982 278.24786423 -164.04825714 277.55041595 -164.05299377 276.83183289 C-164.06370427 268.61088801 -163.00775906 260.95007822 -161 253 C-160.75056641 252.00661621 -160.75056641 252.00661621 -160.49609375 250.99316406 C-156.82668223 236.96106261 -149.41343476 225.89591459 -137.0625 218.16015625 C-129.62217923 213.93026235 -122.23170067 211.23281287 -114 209 C-112.73800781 208.62746094 -111.47601563 208.25492188 -110.17578125 207.87109375 C-100.44207317 205 -100.44207317 205 -97 205 C-97 204.34 -97 203.68 -97 203 C-96.02353516 202.55720703 -95.04707031 202.11441406 -94.04101562 201.65820312 C-90.33437485 199.97637785 -86.62959314 198.29048913 -82.92529297 196.60351562 C-81.33756236 195.8810934 -79.7493636 195.15969897 -78.16064453 194.43945312 C-69.80538315 190.65074689 -61.48577808 186.80984082 -53.27734375 182.7109375 C-52.6438501 182.39475464 -52.01035645 182.07857178 -51.35766602 181.75280762 C-40.83902399 177.27632586 -40.83902399 177.27632586 -33 170 C-32.34 170 -31.68 170 -31 170 C-28.70021486 161.76292096 -28.64927279 153.67382041 -28.6875 145.1875 C-28.68766113 144.46088165 -28.68782227 143.73426331 -28.68798828 142.98562622 C-28.70630709 131.1096423 -29.61988814 119.65971463 -32 108 C-32.9075 107.773125 -33.815 107.54625 -34.75 107.3125 C-38.60516797 105.75560524 -39.85059087 104.53393843 -42 101 C-42.75854529 98.39037778 -43.32109822 96.03248425 -43.75 93.375 C-43.87286377 92.67439453 -43.99572754 91.97378906 -44.12231445 91.25195312 C-45.06842719 85.48692892 -45.33397173 79.83832053 -45 74 C-42.35261084 72.5393715 -41.10551666 72 -38 72 C-38.01047363 71.27522461 -38.02094727 70.55044922 -38.03173828 69.80371094 C-38.07385486 66.45251065 -38.09950047 63.10136636 -38.125 59.75 C-38.14175781 58.61046875 -38.15851563 57.4709375 -38.17578125 56.296875 C-38.26847997 39.98189942 -35.58482579 25.87917745 -23.96484375 13.90234375 C-17.07617514 7.40245362 -9.60802731 2.62661048 0 2 C0 1.34 0 0.68 0 0 Z " fill="#1A2C27" transform="translate(229,28)"/>
<path d="M0 0 C0.33 0 0.66 0 1 0 C1.24907104 1.46469727 1.24907104 1.46469727 1.50317383 2.95898438 C2.1336594 6.66445613 2.7659324 10.36962121 3.39868164 14.07470703 C3.66965916 15.6628431 3.9401843 17.25105645 4.21020508 18.83935547 C5.12662018 24.22862714 6.05564655 29.61555169 7 35 C7.12329681 35.70532867 7.24659363 36.41065735 7.37362671 37.13735962 C9.29400432 48.03168926 11.85256678 58.69112485 14.65820312 69.38867188 C14.96048828 70.56365234 15.26277344 71.73863281 15.57421875 72.94921875 C15.84838623 73.99424561 16.12255371 75.03927246 16.4050293 76.1159668 C16.96724873 78.841243 17.11640379 81.22831403 17 84 C14.57508484 81.57508484 14.38242301 80.11295278 13.6328125 76.79296875 C13.38660156 75.73013672 13.14039063 74.66730469 12.88671875 73.57226562 C12.63535156 72.45529297 12.38398438 71.33832031 12.125 70.1875 C10.62190158 63.55875644 9.0551067 57.04071412 6.9375 50.578125 C4.75517713 43.65458851 3.75512765 36.75276025 2.875 29.5625 C2.56022678 27.1262593 2.2451233 24.69006125 1.9296875 22.25390625 C1.78112305 21.06812988 1.63255859 19.88235352 1.47949219 18.66064453 C1.14451196 16.10326492 0.79020958 13.55665647 0.40332031 11.00732422 C0.21092773 9.73518066 0.01853516 8.46303711 -0.1796875 7.15234375 C-0.35999512 5.99597412 -0.54030273 4.83960449 -0.72607422 3.64819336 C-0.81646973 2.77428955 -0.90686523 1.90038574 -1 1 C-0.67 0.67 -0.34 0.34 0 0 Z " fill="#090F0C" transform="translate(336,509)"/>
<path d="M0 0 C2.18745564 2.18745564 2.46467463 3.06522057 3.125 6 C3.37636719 7.051875 3.37636719 7.051875 3.6328125 8.125 C4.67700818 16.30082998 3.74744195 24.06786831 2.25 32.125 C2.01410156 33.53072266 2.01410156 33.53072266 1.7734375 34.96484375 C-0.81879614 49.22212878 -8.69030998 56.73139933 -19.6875 65.5625 C-20.48885376 66.22548096 -20.48885376 66.22548096 -21.30639648 66.90185547 C-24.96656879 69.74381839 -27.39913125 70.48974765 -32 70 C-32 69.67 -32 69.34 -32 69 C-31.12214844 68.75765625 -30.24429687 68.5153125 -29.33984375 68.265625 C-25.72064353 66.8941386 -23.49625363 65.25369686 -20.5625 62.75 C-19.13744141 61.53763672 -19.13744141 61.53763672 -17.68359375 60.30078125 C-16.79800781 59.54152344 -15.91242188 58.78226563 -15 58 C-14.31035156 57.45730469 -13.62070312 56.91460938 -12.91015625 56.35546875 C-3.63125465 48.98513772 -1.77579401 40.31468753 0 29 C0.28230469 27.25203125 0.28230469 27.25203125 0.5703125 25.46875 C1.61673284 17.021284 1.34358599 8.39741244 0 0 Z " fill="#090E0C" transform="translate(461,655)"/>
<path d="M0 0 C0.66 0.33 1.32 0.66 2 1 C0.5357358 5.46996329 -0.95505499 9.92473085 -2.578125 14.33984375 C-6.58355127 25.31091748 -9.84350063 36.35147388 -12.69042969 47.68139648 C-12.9640332 48.74946533 -13.23763672 49.81753418 -13.51953125 50.91796875 C-13.75776611 51.87469482 -13.99600098 52.8314209 -14.24145508 53.81713867 C-15 56 -15 56 -17 57 C-16.33919573 49.51708969 -14.43429974 42.47756737 -12.4375 35.25 C-12.26347656 34.6155899 -12.08945312 33.98117981 -11.91015625 33.32754517 C-8.74929481 21.87140518 -4.76597392 10.88822233 0 0 Z " fill="#090F0C" transform="translate(74,541)"/>
<path d="M0 0 C0.33 2.31 0.66 4.62 1 7 C0.01 7.66 -0.98 8.32 -2 9 C-2.87010541 12.12056618 -2.87010541 12.12056618 -3.3515625 15.8359375 C-3.45592621 16.5116983 -3.56028992 17.18745911 -3.66781616 17.88369751 C-3.99920866 20.04580827 -4.31256648 22.21007606 -4.625 24.375 C-4.94841439 26.53205845 -5.27546321 28.6885356 -5.60360718 30.84487915 C-5.90013746 32.80632799 -6.18783628 34.76910588 -6.47509766 36.73193359 C-6.87366237 39.21341606 -7.32871643 41.58262063 -8 44 C-8.66 44 -9.32 44 -10 44 C-9.36630531 37.47822548 -8.30907702 31.1664877 -7 24.75 C-5.55881813 17.53007385 -4.51904091 10.57122723 -4.2734375 3.203125 C-4.18320312 2.47609375 -4.09296875 1.7490625 -4 1 C-2 0 -2 0 0 0 Z " fill="#09100D" transform="translate(355,364)"/>
<path d="M0 0 C0.33 0 0.66 0 1 0 C1.10957031 0.94359375 1.21914062 1.8871875 1.33203125 2.859375 C2.10395871 9.11010465 2.91608251 15.06317684 4.6875 21.125 C6.08012526 26.38912349 5.93369766 30.68865778 5.328125 36.06640625 C4.88980878 41.32098286 4.91266089 46.54239931 4.9375 51.8125 C4.94160889 52.81071777 4.94571777 53.80893555 4.94995117 54.83740234 C4.96261797 57.22498993 4.97910471 59.61247231 5 62 C2.48309883 58.17441069 2.68676731 54.21268285 2.65625 49.796875 C2.6416272 49.00025452 2.62700439 48.20363403 2.61193848 47.38287354 C2.56552913 44.83863333 2.53130616 42.29446811 2.5 39.75 C2.45857546 36.41118197 2.40473889 33.07288661 2.34375 29.734375 C2.3384729 28.97888367 2.3331958 28.22339233 2.32775879 27.44500732 C2.23348144 22.33378758 1.328413 17.93522778 0 13 C-0.1953125 9.375 -0.1953125 9.375 -0.125 6 C-0.10695312 4.865625 -0.08890625 3.73125 -0.0703125 2.5625 C-0.03550781 1.2940625 -0.03550781 1.2940625 0 0 Z " fill="#080D0B" transform="translate(181,1107)"/>
<path d="M0 0 C0.66 0 1.32 0 2 0 C3.17353189 3.52059568 3.20146402 6.306493 3 10 C1.66666667 11.33333333 0.33333333 12.66666667 -1 14 C-1.8766567 17.61620887 -2.5355559 21.25284001 -3.21875 24.91015625 C-3.4765625 25.92980469 -3.734375 26.94945312 -4 28 C-4.66 28.33 -5.32 28.66 -6 29 C-5.86722656 28.20078125 -5.73445313 27.4015625 -5.59765625 26.578125 C-4.51443766 19.8416123 -3.68803935 13.17285128 -3.24609375 6.36328125 C-3 4 -3 4 -2 2 C-1.34 2 -0.68 2 0 2 C0 1.34 0 0.68 0 0 Z " fill="#0B130F" transform="translate(125,363)"/>
<path d="M0 0 C0.33 0 0.66 0 1 0 C2.07798084 8.74038519 2.59688937 16.11961823 -2 24 C-2.99 23.67 -3.98 23.34 -5 23 C-4.34386719 22.18144531 -3.68773437 21.36289063 -3.01171875 20.51953125 C-0.41625994 16.62691497 -0.56840306 13.23432273 -0.8125 8.6875 C-0.90562571 6.12313596 -0.967439 3.56639882 -1 1 C-0.67 0.67 -0.34 0.34 0 0 Z M-5 25 C-5.99 25.33 -6.98 25.66 -8 26 C-8 26.66 -8 27.32 -8 28 C-8.99 28.495 -8.99 28.495 -10 29 C-10.85698913 32.04657391 -11.47498345 35.11720638 -12.12109375 38.21484375 C-13 41 -13 41 -16 43 C-16.99 42.67 -17.98 42.34 -19 42 C-18.3709375 41.64035156 -17.741875 41.28070312 -17.09375 40.91015625 C-13.58590526 37.70990237 -13.67277643 33.45710829 -12.90625 28.93359375 C-12 26 -12 26 -10.09375 24.53515625 C-8 24 -8 24 -5 25 Z " fill="#09110E" transform="translate(186,1170)"/>
<path d="M0 0 C-0.33 0.66 -0.66 1.32 -1 2 C-3.54517424 2.49497986 -5.9909318 2.85200737 -8.5625 3.125 C-9.6915979 3.25237549 -9.6915979 3.25237549 -10.84350586 3.38232422 C-18.56774728 4.18202175 -26.2451486 4.18786989 -34 4 C-34.33 3.01 -34.66 2.02 -35 1 C-30.97986475 0.85623256 -26.95968251 0.71386511 -22.93945312 0.57275391 C-21.57387985 0.5246294 -20.20831964 0.47613278 -18.84277344 0.42724609 C-16.87178019 0.35675071 -14.90073413 0.28773663 -12.9296875 0.21875 C-11.74616699 0.17685547 -10.56264648 0.13496094 -9.34326172 0.09179688 C-6.2266617 0.00622351 -3.11755898 -0.01660484 0 0 Z " fill="#090F0D" transform="translate(363,1214)"/>
<path d="M0 0 C-4.766462 2.70044346 -9.62789892 2.79383397 -15 3.25 C-16.03133057 3.34007324 -17.06266113 3.43014648 -18.12524414 3.52294922 C-25.41311046 4.07555641 -31.91002628 3.98214319 -39 2 C-39 1.67 -39 1.34 -39 1 C-37.58521362 0.96241577 -37.58521362 0.96241577 -36.1418457 0.92407227 C-32.62871337 0.82870191 -29.11573292 0.72948275 -25.6027832 0.62768555 C-24.08492245 0.58448452 -22.56701774 0.54279952 -21.04907227 0.50268555 C-18.86200741 0.44462188 -16.67516082 0.38103344 -14.48828125 0.31640625 C-13.17384033 0.27974854 -11.85939941 0.24309082 -10.50512695 0.20532227 C-7.09044455 0.08913079 -7.09044455 0.08913079 -4.15698242 -0.58227539 C-2 -1 -2 -1 0 0 Z " fill="#0A100E" transform="translate(167,1214)"/>
<path d="M0 0 C2.25060343 3.37590515 2.25658785 4.56122839 2.265625 8.515625 C2.26949219 10.14564453 2.26949219 10.14564453 2.2734375 11.80859375 C2.26570312 12.94425781 2.25796875 14.07992187 2.25 15.25 C2.25773438 16.37019531 2.26546875 17.49039063 2.2734375 18.64453125 C2.259659 24.47972573 2.00266073 29.50063006 0 35 C-0.33 35 -0.66 35 -1 35 C-1 31.04 -1 27.08 -1 23 C-0.67 23 -0.34 23 0 23 C0 15.41 0 7.82 0 0 Z " fill="#09100D" transform="translate(131,854)"/>
<path d="M0 0 C0.66 0.66 1.32 1.32 2 2 C1.828125 4.8359375 1.828125 4.8359375 1.25 8.375 C1.04890625 9.62410156 0.8478125 10.87320312 0.640625 12.16015625 C0.42921875 13.42730469 0.2178125 14.69445313 0 16 C-0.17015625 17.17433594 -0.3403125 18.34867188 -0.515625 19.55859375 C-0.67546875 20.63238281 -0.8353125 21.70617188 -1 22.8125 C-1.144375 23.78832031 -1.28875 24.76414062 -1.4375 25.76953125 C-1.623125 26.50558594 -1.80875 27.24164062 -2 28 C-2.66 28.33 -3.32 28.66 -4 29 C-4.24856408 22.41305198 -3.31547023 16.44402648 -2 10 C-1.80921875 9.03449219 -1.6184375 8.06898437 -1.421875 7.07421875 C-0.95464658 4.71471522 -0.48056564 2.35681661 0 0 Z " fill="#0A100E" transform="translate(189,1033)"/>
<path d="M0 0 C0.33 0 0.66 0 1 0 C1.82536345 5.71905383 2.12753701 11.2267149 2.0625 17 C2.05798828 17.77472656 2.05347656 18.54945312 2.04882812 19.34765625 C2.03719758 21.23180524 2.01926906 23.11591365 2 25 C1.34 25.33 0.68 25.66 0 26 C-0.09688221 20.55306686 -0.12862175 15.36095333 1 10 C0.34 10 -0.32 10 -1 10 C-0.67 6.7 -0.34 3.4 0 0 Z " fill="#090F0C" transform="translate(302,1079)"/>
<path d="M0 0 C0.33 0 0.66 0 1 0 C3.29612756 14.59681093 3.29612756 14.59681093 3 22 C2.34 22.33 1.68 22.66 1 23 C1.33 20.36 1.66 17.72 2 15 C1.34 15 0.68 15 0 15 C0.33 12.69 0.66 10.38 1 8 C0.34 8 -0.32 8 -1 8 C-0.67 5.36 -0.34 2.72 0 0 Z " fill="#080F0C" transform="translate(125,1005)"/>
<path d="M0 0 C2.15641331 3.23461997 2.81100973 5.67072961 3.6875 9.4375 C3.95949219 10.57058594 4.23148437 11.70367188 4.51171875 12.87109375 C4.96085657 15.74916889 4.98469931 17.31025087 4 20 C2.21860706 16.76393248 1.22819081 13.57342755 0.3125 10 C0.04050781 8.96875 -0.23148437 7.9375 -0.51171875 6.875 C-0.98122716 4.11053448 -0.93214283 2.60249272 0 0 Z " fill="#080D0A" transform="translate(286,999)"/>
<path d="M0 0 C0.66 0.33 1.32 0.66 2 1 C1.35587386 3.77124036 0.70977252 6.54199445 0.0625 9.3125 C-0.11990234 10.09818359 -0.30230469 10.88386719 -0.49023438 11.69335938 C-0.66748047 12.45068359 -0.84472656 13.20800781 -1.02734375 13.98828125 C-1.18968506 14.68477783 -1.35202637 15.38127441 -1.51928711 16.09887695 C-1.93765565 17.7534406 -2.46031369 19.38094108 -3 21 C-3.66 21 -4.32 21 -5 21 C-3.68882339 13.88879511 -1.98279484 6.95300057 0 0 Z " fill="#090F0C" transform="translate(344,410)"/>
<path d="M0 0 C0.33 0 0.66 0 1 0 C4.36842105 13.26315789 4.36842105 13.26315789 2 18 C1.34 18 0.68 18 0 18 C0 12.06 0 6.12 0 0 Z " fill="#0A110E" transform="translate(456,548)"/>
<path d="M0 0 C1.83069903 3.12929178 2.23931181 5.37643146 2.1953125 8.984375 C2.18886719 9.91894531 2.18242187 10.85351562 2.17578125 11.81640625 C2.15902344 12.78449219 2.14226562 13.75257813 2.125 14.75 C2.11597656 15.73355469 2.10695312 16.71710938 2.09765625 17.73046875 C2.07412785 20.15389407 2.04125368 22.57682222 2 25 C1.67 25 1.34 25 1 25 C0.67 19.39 0.34 13.78 0 8 C-0.33 8 -0.66 8 -1 8 C-0.67 5.36 -0.34 2.72 0 0 Z " fill="#101C17" transform="translate(145,451)"/>
<path d="M0 0 C0.33 5.61 0.66 11.22 1 17 C-2 14 -2 14 -2.1875 10.8125 C-2.125625 9.884375 -2.06375 8.95625 -2 8 C-2.33 8 -2.66 8 -3 8 C-3 5.69 -3 3.38 -3 1 C-1 0 -1 0 0 0 Z " fill="#0B1210" transform="translate(17,665)"/>
<path d="M0 0 C0.125 3.375 0.125 3.375 0 7 C-0.66 7.66 -1.32 8.32 -2 9 C-2.66 9 -3.32 9 -4 9 C-4 6.36 -4 3.72 -4 1 C-2 0 -2 0 0 0 Z " fill="#060B09" transform="translate(128,366)"/>
<path d="M0 0 C0.66 0.33 1.32 0.66 2 1 C1.10447495 7.62217208 0.26138043 12.74429747 -4 18 C-4.66 17.67 -5.32 17.34 -6 17 C-5.34 16.34 -4.68 15.68 -4 15 C-1.981313 10.17060525 -0.66549991 5.19089929 0 0 Z " fill="#080E0C" transform="translate(428,676)"/>
<path d="M0 0 C0.33 0 0.66 0 1 0 C1.05384521 2.29141286 1.09272087 4.58318188 1.125 6.875 C1.14820313 8.15117188 1.17140625 9.42734375 1.1953125 10.7421875 C1 14 1 14 -1 16 C-2.26823485 12.34606463 -1.75715321 9.50929974 -1.0625 5.75 C-0.86785156 4.67234375 -0.67320312 3.5946875 -0.47265625 2.484375 C-0.31667969 1.66453125 -0.16070312 0.8446875 0 0 Z " fill="#080E0B" transform="translate(425,610)"/>
<path d="M0 0 C0.66 0.66 1.32 1.32 2 2 C1.9765625 5.0390625 1.9765625 5.0390625 1.625 8.625 C1.51414062 9.81351563 1.40328125 11.00203125 1.2890625 12.2265625 C1.19367188 13.14179687 1.09828125 14.05703125 1 15 C0.34 15 -0.32 15 -1 15 C-0.67 10.05 -0.34 5.1 0 0 Z " fill="#0A110E" transform="translate(347,1077)"/>
<path d="M0 0 C0.66 0 1.32 0 2 0 C2.36108597 6.25882353 2.36108597 6.25882353 0.8125 9.4375 C-1 11 -1 11 -3.6875 11.25 C-4.450625 11.1675 -5.21375 11.085 -6 11 C-5.195625 10.484375 -4.39125 9.96875 -3.5625 9.4375 C-0.33552922 6.36794243 -0.25103743 4.35131541 0 0 Z " fill="#0B110E" transform="translate(373,1202)"/>
<path d="M0 0 C0.66 0.33 1.32 0.66 2 1 C1.67 4.63 1.34 8.26 1 12 C0.34 12 -0.32 12 -1 12 C-1.08159574 7.83861737 -0.98248524 4.0527516 0 0 Z " fill="#0A100E" transform="translate(349,1065)"/>
<path d="M0 0 C-3.01490557 2.00993705 -5.2149927 2.72623341 -8.6875 3.625 C-10.17830078 4.01558594 -10.17830078 4.01558594 -11.69921875 4.4140625 C-12.45847656 4.60742188 -13.21773438 4.80078125 -14 5 C-13 2 -13 2 -10.9375 0.8125 C-7.14524878 -0.23642055 -3.92937998 -0.13319932 0 0 Z " fill="#0A110E" transform="translate(132,232)"/>
<path d="M0 0 C0.66 0.33 1.32 0.66 2 1 C2.25 8.625 2.25 8.625 0 12 C-1.53166168 7.91556885 -0.63081652 4.20544343 0 0 Z " fill="#080D0B" transform="translate(302,1113)"/>
<path d="M0 0 C3 6 3 6 2.44140625 7.9453125 C2.00634766 9.02425781 2.00634766 9.02425781 1.5625 10.125 C1.27503906 10.84945313 0.98757813 11.57390625 0.69140625 12.3203125 C0.46324219 12.87460938 0.23507812 13.42890625 0 14 C-1.03115279 10.73086376 -0.9638984 8.13958652 -0.5625 4.75 C-0.46066406 3.85796875 -0.35882813 2.9659375 -0.25390625 2.046875 C-0.17011719 1.37140625 -0.08632813 0.6959375 0 0 Z " fill="#09100D" transform="translate(356,1018)"/>
<path d="M0 0 C0.33 0 0.66 0 1 0 C1.05429959 1.74965358 1.09292823 3.49979787 1.125 5.25 C1.14820313 6.22453125 1.17140625 7.1990625 1.1953125 8.203125 C0.99862781 11.0196498 0.44568916 12.60949036 -1 15 C-1.33 12.36 -1.66 9.72 -2 7 C-1.67 7 -1.34 7 -1 7 C-0.67 4.69 -0.34 2.38 0 0 Z " fill="#0D1713" transform="translate(284,917)"/>
<path d="M0 0 C-2.85306797 2.32472205 -5.54074837 3.7508258 -9 5 C-9 4.01 -9 3.02 -9 2 C-3.375 -1.125 -3.375 -1.125 0 0 Z " fill="#070C0A" transform="translate(178,210)"/>
<path d="M0 0 C1.88391785 3.26545761 2.49287967 6.28111761 3 10 C2.34 10 1.68 10 1 10 C-0.83691257 6.21812119 -1.15837626 4.05431692 0 0 Z " fill="#080F0C" transform="translate(51,679)"/>
<path d="M0 0 C0.66 0.33 1.32 0.66 2 1 C0.68 3.64 -0.64 6.28 -2 9 C-2.66 8.67 -3.32 8.34 -4 8 C-2.25 2.25 -2.25 2.25 0 0 Z " fill="#060A08" transform="translate(198,48)"/>
</svg>
